# Blender v2.77 (sub 0) OBJ File: 'untitled.blend'
# www.blender.org
mtllib Stem.mtl
o Cube.001
v -0.400000 0.200000 0.400000
v -0.400000 3.400000 0.400000
v -0.400000 0.200000 -0.400000
v -0.400000 3.400000 -0.400000
v 0.400000 0.200000 0.400000
v 0.400000 3.400000 0.400000
v 0.400000 0.200000 -0.400000
v 0.400000 3.400000 -0.400000
vt 0.0002 0.7996
vt 0.2000 0.0002
vt 0.2000 0.7996
vt 0.2004 0.7996
vt 0.4003 0.0002
vt 0.4003 0.7996
vt 0.6009 0.7996
vt 0.8008 0.0002
vt 0.8008 0.7996
vt 0.4007 0.7996
vt 0.6005 0.0002
vt 0.6005 0.7996
vt 0.0002 0.8000
vt 0.2000 0.9998
vt 0.0002 0.9998
vt 0.4003 0.9998
vt 0.2004 0.8000
vt 0.4003 0.8000
vt 0.0002 0.0002
vt 0.2004 0.0002
vt 0.6009 0.0002
vt 0.4007 0.0002
vt 0.2000 0.8000
vt 0.2004 0.9998
vn -1.0000 0.0000 0.0000
vn 0.0000 0.0000 -1.0000
vn 1.0000 0.0000 0.0000
vn 0.0000 0.0000 1.0000
vn 0.0000 -1.0000 0.0000
vn 0.0000 1.0000 0.0000
usemtl Stem_Green
s off
f 4/1/1 1/2/1 2/3/1
f 8/4/2 3/5/2 4/6/2
f 6/7/3 7/8/3 8/9/3
f 2/10/4 5/11/4 6/12/4
f 3/13/5 5/14/5 1/15/5
f 8/16/6 2/17/6 6/18/6
f 4/1/1 3/19/1 1/2/1
f 8/4/2 7/20/2 3/5/2
f 6/7/3 5/21/3 7/8/3
f 2/10/4 1/22/4 5/11/4
f 3/13/5 7/23/5 5/14/5
f 8/16/6 4/24/6 2/17/6
